<?xml version="1.0" encoding="utf-8"?>
<!-- Generator: Adobe Illustrator 15.1.0, SVG Export Plug-In . SVG Version: 6.00 Build 0)  -->
<!DOCTYPE svg PUBLIC "-//W3C//DTD SVG 1.1//EN" "http://www.w3.org/Graphics/SVG/1.1/DTD/svg11.dtd">
<svg version="1.1" id="圖層_1" xmlns="http://www.w3.org/2000/svg" xmlns:xlink="http://www.w3.org/1999/xlink" x="0px" y="0px"
	 width="70px" height="70px" viewBox="0 0 70 70" enable-background="new 0 0 70 70" xml:space="preserve">
<g>
	<rect y="0" fill="#4D3126" width="70" height="70"/>
	<g>
		<path fill="#FFFFFF" d="M14.725,43.729h-2.454V23.449h2.454V43.729z"/>
		<path fill="#FFFFFF" d="M29.551,43.729h-2.454v-1.543c-0.216,0.146-0.507,0.354-0.874,0.619c-0.367,0.268-0.723,0.477-1.067,0.635
			c-0.406,0.199-0.872,0.367-1.398,0.502c-0.526,0.135-1.143,0.201-1.851,0.201c-1.302,0-2.407-0.434-3.313-1.305
			s-1.359-1.98-1.359-3.332c0-1.107,0.235-2,0.706-2.684s1.141-1.222,2.012-1.614c0.88-0.392,1.937-0.657,3.17-0.797
			c1.234-0.138,2.558-0.244,3.973-0.313v-0.386c0-0.567-0.097-1.038-0.291-1.412c-0.193-0.373-0.472-0.665-0.833-0.877
			c-0.344-0.205-0.758-0.343-1.24-0.413c-0.482-0.072-0.986-0.106-1.511-0.106c-0.638,0-1.349,0.088-2.132,0.262
			c-0.784,0.174-1.594,0.426-2.429,0.756h-0.129v-2.485c0.476-0.131,1.163-0.273,2.061-0.429s1.785-0.235,2.658-0.235
			c1.019,0,1.907,0.085,2.664,0.256c0.756,0.169,1.41,0.459,1.964,0.868c0.544,0.401,0.959,0.919,1.244,1.555
			c0.285,0.637,0.428,1.425,0.428,2.367V43.729z M27.098,40.16v-4.072c-0.739,0.043-1.608,0.109-2.608,0.195
			c-1,0.09-1.792,0.215-2.376,0.381c-0.695,0.201-1.258,0.514-1.687,0.938c-0.43,0.422-0.644,1.004-0.644,1.746
			c0,0.84,0.249,1.471,0.747,1.893c0.498,0.424,1.258,0.635,2.28,0.635c0.849,0,1.626-0.168,2.331-0.504
			C25.844,41.035,26.497,40.631,27.098,40.16z"/>
		<path fill="#FFFFFF" d="M40.483,43.637c-0.463,0.121-0.967,0.221-1.513,0.299c-0.547,0.076-1.034,0.115-1.461,0.115
			c-1.494,0-2.629-0.4-3.407-1.201s-1.166-2.088-1.166-3.857v-7.765h-1.667V29.19h1.667v-4.167h2.454v4.167h5.092v2.037h-5.092
			v6.671c0,0.77,0.017,1.369,0.052,1.801c0.035,0.434,0.158,0.838,0.369,1.215c0.192,0.348,0.456,0.604,0.793,0.766
			c0.338,0.162,0.851,0.242,1.543,0.242c0.401,0,0.822-0.059,1.26-0.174s0.752-0.213,0.945-0.289h0.131V43.637z"/>
		<path fill="#FFFFFF" d="M44.704,26.736h-2.73V24.19h2.73V26.736z M44.566,43.729h-2.454V29.19h2.454V43.729z"/>
		<path fill="#FFFFFF" d="M60.688,29.19l-5.895,14.539h-2.463L46.476,29.19h2.646l4.526,11.57l4.493-11.57H60.688z"/>
	</g>
</g>
</svg>
